<svg width="15" height="15" xmlns="http://www.w3.org/2000/svg">
    <g><rect fill="none" height="17" width="17" /></g>
    <g><path d="m14.378677,12.70574l-3.731342,-3.804468c0.532656,-0.886699 0.855606,-1.919895 0.855606,-3.037084c0,-3.237994 -2.57618,-5.864188 -5.751471,-5.864188c-3.175755,0 -5.751471,2.626194 -5.751471,5.864188c0,3.237521 2.575715,5.864188 5.751471,5.864188c1.095716,0 2.109053,-0.32928 2.978708,-0.870465l3.731342,3.80256c0.262111,0.267248 0.696466,0.265339 0.958577,0l0.958579,-0.977365c0.262111,-0.267248 0.262111,-0.710117 0,-0.977365zm-8.627207,-2.932094c-2.117485,0 -3.834314,-1.750476 -3.834314,-3.909459s1.716829,-3.909458 3.834314,-3.909458s3.834313,1.750475 3.834313,3.909458s-1.716828,3.909459 -3.834313,3.909459z"/></g>
</svg>